/* XPM */
static char * masumi_icon_xpm[] = {
"32 32 579 2",
"  	c None",
". 	c #ACE1D0",
"+ 	c #ACE0D0",
"@ 	c #ABE1CF",
"# 	c #AAE2CE",
"$ 	c #C5D2E0",
"% 	c #A391B6",
"& 	c #695E7E",
"* 	c #7B6DF5",
"= 	c #7F69FE",
"- 	c #8067FE",
"; 	c #7F67FF",
"> 	c #8068FF",
", 	c #7E66FE",
"' 	c #7761F2",
") 	c #7E67FD",
"! 	c #6854D6",
"~ 	c #5C4BC3",
"{ 	c #836AFF",
"] 	c #8068FE",
"^ 	c #7C64FD",
"/ 	c #7F67FE",
"( 	c #AFDDD2",
"_ 	c #B9D4DB",
": 	c #C5B2D4",
"< 	c #E8D0F4",
"[ 	c #E9CDF6",
"} 	c #7865CB",
"| 	c #8069FF",
"1 	c #8168FE",
"2 	c #7D65FF",
"3 	c #735DE9",
"4 	c #6551D2",
"5 	c #8269FF",
"6 	c #7A62FA",
"7 	c #ABE0CF",
"8 	c #ABE0D0",
"9 	c #ACE1CF",
"0 	c #AAE1CE",
"a 	c #B8D8D8",
"b 	c #EAD1F5",
"c 	c #FFDBFF",
"d 	c #FFDEFF",
"e 	c #CAABF7",
"f 	c #7A62FC",
"g 	c #826AFF",
"h 	c #866EFF",
"i 	c #7861F2",
"j 	c #6C57DD",
"k 	c #8169FF",
"l 	c #7861F3",
"m 	c #775FF2",
"n 	c #AAE0CE",
"o 	c #A6CDD3",
"p 	c #DDCEEF",
"q 	c #FFDCFF",
"r 	c #FFDCFE",
"s 	c #FFDDFF",
"t 	c #F2CFFD",
"u 	c #8A71FF",
"v 	c #8067FF",
"w 	c #836BFF",
"x 	c #856DFF",
"y 	c #826BFE",
"z 	c #7962F4",
"A 	c #6E5AE2",
"B 	c #886FFF",
"C 	c #876FFF",
"D 	c #856CFE",
"E 	c #6C57DE",
"F 	c #ABDFD0",
"G 	c #92ACDB",
"H 	c #A194F2",
"I 	c #F0CEFB",
"J 	c #FFDDFE",
"K 	c #FEDCFF",
"L 	c #FFE0FF",
"M 	c #AD90EB",
"N 	c #7E65FF",
"O 	c #7F68FF",
"P 	c #AE93FE",
"Q 	c #AE93FF",
"R 	c #9D83FE",
"S 	c #846BFF",
"T 	c #7862F5",
"U 	c #725DE2",
"V 	c #A68BFF",
"W 	c #B799FF",
"X 	c #B194FF",
"Y 	c #937AFF",
"Z 	c #715CE6",
"` 	c #ABE1D0",
" .	c #A3CFD4",
"..	c #8B74F9",
"+.	c #D2B1FF",
"@.	c #FEDBFF",
"#.	c #FEDBFD",
"$.	c #D7B6D7",
"%.	c #8168F0",
"&.	c #7E66FF",
"*.	c #8B72FF",
"=.	c #8F76FD",
"-.	c #A88DFE",
";.	c #E6C5FF",
">.	c #DEBEFF",
",.	c #B79AFF",
"'.	c #735DEC",
").	c #6956D4",
"!.	c #E5C4FF",
"~.	c #E2C1FF",
"{.	c #B699FF",
"].	c #7C65F5",
"^.	c #000000",
"/.	c #8C96E6",
"(.	c #886DFF",
"_.	c #C3A4FD",
":.	c #FFDFFF",
"<.	c #FFDEFE",
"[.	c #8D71AD",
"}.	c #7F67FC",
"|.	c #7E67FF",
"1.	c #9077FF",
"2.	c #A288FD",
"3.	c #B094FE",
"4.	c #F1CEFF",
"5.	c #EECCFF",
"6.	c #7C65F8",
"7.	c #5746BC",
"8.	c #5C49C9",
"9.	c #EFCDFF",
"0.	c #F4D1FF",
"a.	c #C0A1FF",
"b.	c #755FE9",
"c.	c #A9DCD0",
"d.	c #7C67FB",
"e.	c #A98DFA",
"f.	c #FFE0FE",
"g.	c #FFE6FF",
"h.	c #B393A9",
"i.	c #6D55B5",
"j.	c #7F67FD",
"k.	c #9279FF",
"l.	c #A388FE",
"m.	c #937AFE",
"n.	c #DDBDFF",
"o.	c #E8C7FF",
"p.	c #A287FF",
"q.	c #735EED",
"r.	c #2D2364",
"s.	c #6953C6",
"t.	c #A186FF",
"u.	c #E8C7FE",
"v.	c #A68AFF",
"w.	c #6451C7",
"x.	c #A2CDD5",
"y.	c #7E62FF",
"z.	c #7E65EA",
"A.	c #8E73A9",
"B.	c #826679",
"C.	c #593F4E",
"D.	c #7059DC",
"E.	c #A085FF",
"F.	c #9F85FF",
"G.	c #C1A4FE",
"H.	c #8B72FE",
"I.	c #5F4DC2",
"J.	c #3B2E36",
"K.	c #8E72B6",
"L.	c #8C72FF",
"M.	c #CDAEFE",
"N.	c #4A3B9D",
"O.	c #93A8E3",
"P.	c #7E64FF",
"Q.	c #624BB9",
"R.	c #543B54",
"S.	c #51384F",
"T.	c #745BEB",
"U.	c #856DFE",
"V.	c #8E74FF",
"W.	c #715DDB",
"X.	c #755EEC",
"Y.	c #8C73FF",
"Z.	c #7E66FB",
"`.	c #3C307B",
" +	c #735B49",
".+	c #957791",
"++	c #8169F3",
"@+	c #B69AFF",
"#+	c #9D82FF",
"$+	c #292067",
"%+	c #7D68FC",
"&+	c #6752E2",
"*+	c #55487A",
"=+	c #56444F",
"-+	c #6F59DD",
";+	c #7E66FD",
">+	c #745FEC",
",+	c #5C4BC1",
"'+	c #866DFF",
")+	c #8D73FF",
"!+	c #43378C",
"~+	c #5F4DB9",
"{+	c #7A63F4",
"]+	c #261D3D",
"^+	c #9C7D63",
"/+	c #967878",
"(+	c #846AD4",
"_+	c #6551D4",
":+	c #211949",
"<+	c #745AFF",
"[+	c #7D65FE",
"}+	c #694FEE",
"|+	c #6D7EB4",
"1+	c #86B09F",
"2+	c #7475C7",
"3+	c #7E67FC",
"4+	c #7E66FC",
"5+	c #4C3DA0",
"6+	c #493B99",
"7+	c #876EFF",
"8+	c #7560EE",
"9+	c #382D5B",
"0+	c #715B9B",
"a+	c #836AFC",
"b+	c #8168FF",
"c+	c #6652CF",
"d+	c #443539",
"e+	c #A28269",
"f+	c #9A7B66",
"g+	c #8D71B8",
"h+	c #856CFF",
"i+	c #3D3092",
"j+	c #614D55",
"k+	c #8367FE",
"l+	c #7A61FD",
"m+	c #7054FC",
"n+	c #565AA0",
"o+	c #9ED2BC",
"p+	c #7786BD",
"q+	c #7D65F9",
"r+	c #221B51",
"s+	c #433689",
"t+	c #6F5BDE",
"u+	c #433692",
"v+	c #43353C",
"w+	c #705A73",
"x+	c #6956C8",
"y+	c #7963F2",
"z+	c #433592",
"A+	c #745D4F",
"B+	c #A0816B",
"C+	c #A48569",
"D+	c #A788AE",
"E+	c #7861F1",
"F+	c #1C1550",
"G+	c #705A4D",
"H+	c #8367FF",
"I+	c #8E75FF",
"J+	c #6E54FB",
"K+	c #403F86",
"L+	c #94C5B1",
"M+	c #7785BF",
"N+	c #7B65F7",
"O+	c #0E0C2C",
"P+	c #41357E",
"Q+	c #614FC7",
"R+	c #392D68",
"S+	c #6B5547",
"T+	c #866C61",
"U+	c #6250B3",
"V+	c #745EE8",
"W+	c #2C225C",
"X+	c #9B7E67",
"Y+	c #A38774",
"Z+	c #B2947C",
"`+	c #CEACB1",
" @	c #9D82FC",
".@	c #4D3EAA",
"+@	c #201832",
"@@	c #826957",
"#@	c #6C55F5",
"$@	c #8970FF",
"%@	c #C7A9FE",
"&@	c #A88BFF",
"*@	c #6048E4",
"=@	c #363770",
"-@	c #94C5B0",
";@	c #7885C4",
">@	c #7B65F8",
",@	c #120F31",
"'@	c #604EA5",
")@	c #6855DF",
"!@	c #372B4E",
"~@	c #574536",
"{@	c #5A4532",
"]@	c #7760D8",
"^@	c #735EEB",
"/@	c #31263D",
"(@	c #A98B75",
"_@	c #BB9D86",
":@	c #F0CDB6",
"<@	c #AC8FF8",
"[@	c #2F247F",
"}@	c #241B2F",
"|@	c #564235",
"1@	c #7C65FB",
"2@	c #9B80FF",
"3@	c #EDCBFE",
"4@	c #A98CFF",
"5@	c #4C38BE",
"6@	c #31375D",
"7@	c #99CBB7",
"8@	c #6F79B8",
"9@	c #7C66F9",
"0@	c #2A2258",
"a@	c #6B5698",
"b@	c #483AA4",
"c@	c #000004",
"d@	c #55524F",
"e@	c #9C9A92",
"f@	c #7B6EBB",
"g@	c #4F40B1",
"h@	c #534348",
"i@	c #A98C78",
"j@	c #A48875",
"k@	c #C9AA92",
"l@	c #FFE2BE",
"m@	c #AA8ED7",
"n@	c #181053",
"o@	c #514F58",
"p@	c #A6A3A2",
"q@	c #AA8EFE",
"r@	c #E7C5FF",
"s@	c #9478FF",
"t@	c #35258E",
"u@	c #41555F",
"v@	c #A6DDC8",
"w@	c #505395",
"x@	c #7D65FC",
"y@	c #4F4097",
"z@	c #584651",
"A@	c #110D3D",
"B@	c #5E5E5D",
"C@	c #7A7A79",
"D@	c #696677",
"E@	c #110C44",
"F@	c #78635E",
"G@	c #A78A76",
"H@	c #B19480",
"I@	c #F0CDB1",
"J@	c #FFE6C1",
"K@	c #9E859F",
"L@	c #453F68",
"M@	c #303035",
"N@	c #B6B6B6",
"O@	c #A98EFF",
"P@	c #C5A6FF",
"Q@	c #735CF2",
"R@	c #211667",
"S@	c #5D7C77",
"T@	c #B0EAD2",
"U@	c #4F4F96",
"V@	c #846DFB",
"W@	c #9C82FC",
"X@	c #765FE1",
"Y@	c #64504C",
"Z@	c #544F59",
"`@	c #414241",
" #	c #565755",
".#	c #5D5A73",
"+#	c #9E8473",
"@#	c #A88C78",
"##	c #D9B99F",
"$#	c #FFDFBF",
"%#	c #FFE2C1",
"&#	c #AF958E",
"*#	c #ADA7B2",
"=#	c #1B1F1C",
"-#	c #070707",
";#	c #A388FF",
">#	c #5C48D0",
",#	c #201F52",
"'#	c #7FA79E",
")#	c #B2EBD2",
"!#	c #5554A0",
"~#	c #856FFB",
"{#	c #E3C2FC",
"]#	c #765FEA",
"^#	c #7E668E",
"/#	c #BAA592",
"(#	c #69846B",
"_#	c #314131",
":#	c #081C08",
"<#	c #4E6350",
"[#	c #FCEADA",
"}#	c #CDAE95",
"|#	c #D8B89F",
"1#	c #FFDEBF",
"2#	c #FFDCBD",
"3#	c #FED9B9",
"4#	c #FFF3EB",
"5#	c #224922",
"6#	c #010301",
"7#	c #947BFF",
"8#	c #4937AB",
"9#	c #374854",
"0#	c #9ED0C2",
"a#	c #AFE7CF",
"b#	c #757EC3",
"c#	c #8972FC",
"d#	c #E8C8FC",
"e#	c #4B3BA6",
"f#	c #6C57A1",
"g#	c #C5AD99",
"h#	c #A3C09E",
"i#	c #779578",
"j#	c #164E16",
"k#	c #7DA180",
"l#	c #FBE5CF",
"m#	c #FFDDBE",
"n#	c #FFDEBE",
"o#	c #FEDBBC",
"p#	c #FEDCBD",
"q#	c #FFDAB9",
"r#	c #FFF6EE",
"s#	c #407F3F",
"t#	c #0C330C",
"u#	c #8972FF",
"v#	c #7C65F7",
"w#	c #3D3090",
"x#	c #5B7B75",
"y#	c #AFE5D3",
"z#	c #ADE5CE",
"A#	c #7C89C6",
"B#	c #8B73FD",
"C#	c #E9C7FC",
"D#	c #3F3389",
"E#	c #3E3239",
"F#	c #CDAC9D",
"G#	c #CDC7B3",
"H#	c #588C58",
"I#	c #166117",
"J#	c #B9C5B7",
"K#	c #F6D8BD",
"L#	c #FFDBBB",
"M#	c #FEDBBB",
"N#	c #FFDBBC",
"O#	c #F5DCCA",
"P#	c #92A98E",
"Q#	c #146515",
"R#	c #826BFF",
"S#	c #6F59E5",
"T#	c #464886",
"U#	c #8FBEAF",
"V#	c #ADE3D1",
"W#	c #7E8ACB",
"X#	c #876FFD",
"Y#	c #EAC9FD",
"Z#	c #4F40A2",
"`#	c #392F2B",
" $	c #EEC7A7",
".$	c #E3C4AD",
"+$	c #AFA490",
"@$	c #A19B8B",
"#$	c #C0AB99",
"$$	c #F8D4B6",
"%$	c #FFD9BA",
"&$	c #FFD9B9",
"*$	c #F7D3B3",
"=$	c #ECC8AB",
"-$	c #FFDABA",
";$	c #EAC8AB",
">$	c #C3AEA2",
",$	c #898B74",
"'$	c #6C57DF",
")$	c #576A89",
"!$	c #AFE6D1",
"~$	c #7B87C6",
"{$	c #8169FD",
"]$	c #E6C5FE",
"^$	c #6D5AC5",
"/$	c #262023",
"($	c #EBC5A6",
"_$	c #FFD5B6",
":$	c #F8C5A9",
"<$	c #F8C1A6",
"[$	c #FFCFB2",
"}$	c #FFD8B9",
"|$	c #FFDBBD",
"1$	c #FFE0C1",
"2$	c #F9D7B9",
"3$	c #E9CAAE",
"4$	c #FFE1C2",
"5$	c #FFDBBE",
"6$	c #FFD7B9",
"7$	c #FFCCAF",
"8$	c #F3BDA3",
"9$	c #6F5EE0",
"0$	c #6D8F91",
"a$	c #B0E7D3",
"b$	c #AADFCE",
"c$	c #ADE4CE",
"d$	c #8397C4",
"e$	c #7D67FD",
"f$	c #D2B2FE",
"g$	c #927BE2",
"h$	c #261F35",
"i$	c #D3AA91",
"j$	c #FFC2A6",
"k$	c #F7AD94",
"l$	c #F8B097",
"m$	c #FEC6AB",
"n$	c #FFDABB",
"o$	c #F9D5B8",
"p$	c #D6AF98",
"q$	c #D0A993",
"r$	c #D1A994",
"s$	c #DBB49C",
"t$	c #F6D2B5",
"u$	c #FDC1A6",
"v$	c #7E65FD",
"w$	c #6E61D6",
"x$	c #82AEA1",
"y$	c #AEE4D2",
"z$	c #ACE2CF",
"A$	c #8AAFB7",
"B$	c #AA8DFE",
"C$	c #BC9FEF",
"D$	c #2F2562",
"E$	c #9F816F",
"F$	c #FFCDAF",
"G$	c #FAB79D",
"H$	c #FCC2A7",
"I$	c #FED3B7",
"J$	c #EDC5AB",
"K$	c #AA514F",
"L$	c #E3706C",
"M$	c #D06462",
"N$	c #BF6D66",
"O$	c #F0C2A9",
"P$	c #FED0B4",
"Q$	c #FCBDA3",
"R$	c #7C63F9",
"S$	c #6963C6",
"T$	c #9BD0BC",
"U$	c #ADE2D0",
"V$	c #A4D9C4",
"W$	c #7266DE",
"X$	c #CEAFFB",
"Y$	c #4D3FA2",
"Z$	c #453A35",
"`$	c #F0C9AC",
" %	c #FFD6B8",
".%	c #FED7B9",
"+%	c #FCD6B9",
"@%	c #F27977",
"#%	c #FE7677",
"$%	c #FA7071",
"%%	c #E2847B",
"&%	c #F0CAAE",
"*%	c #F6CDB0",
"=%	c #7962F5",
"-%	c #5E5CB0",
";%	c #A3D9C4",
">%	c #80A0AE",
",%	c #6B56DA",
"'%	c #A488FF",
")%	c #947CDA",
"!%	c #0D0936",
"~%	c #60514E",
"{%	c #ECCBAF",
"]%	c #FEDABC",
"^%	c #FEA99A",
"/%	c #FF7576",
"(%	c #FF7B7A",
"_%	c #FEB09E",
":%	c #FEDEBE",
"<%	c #F8D5B7",
"[%	c #B79883",
"                                                                ",
"                                                                ",
"                                                                ",
"      . . . + @ # $ % &     * = - ; > , ' > ) ! ~ { ] ^ / >     ",
"      . . + @ + ( _ : < [ } | 1 ; > / 2 > / > 3 4 5 ; > 6 /     ",
"      7 8 9 0 a b c d d e f g h ; > 2 ; ; ; > i j k ; ; l m     ",
"      8 9 n o p q r s t u ; ] v ; ; 2 w x y > z A B C D g E     ",
"      9 F G H I J K L M 2 ; N O ] k C P Q R S T U V W X Y Z     ",
"      `  ...+.@.#.L $.%.w ; &.; *.=.-.;.>.,.x '.).,.!.~.{.].^.^.",
"      F /.(._.:.s <.[.}.g g |.&.1.2.3.4.5.{.6.7.8.X 9.0.a.b.^.^.",
"      c.d., e.f.g.h.i.j.] k.; &.*.l.m.n.o.p.q.r.s.t.u.9.v.w.^.^.",
"      x.y.; z.A.B.C.D./ k E.k ; *.=.] F.G.H.I.J.K.L.n.M.L.N.^.^.",
"      O.P.> 2 Q.R.S.T.; > U.^ 5 V.W.X.] Y.Z.`. +.+++@+#+g $+^.^.",
"      %+v ] &.&+*+=+-+;+/ >+,+'+)+!+~+}.; {+]+^+/+(+C x _+:+^.^.",
"      <+[+> N }+|+1+2+3+4+5+6+7+8+9+0+a+b+c+d+e+f+g+&.h+i+j+^.^.",
"      k+l+O 2 m+n+o+p+3+q+r+s+t+u+v+w+x+y+z+A+B+C+D+u E+F+G+^.^.",
"      H+- I+)+J+K+L+M+3+N+O+P+Q+R+S+T+U+V+W+X+Y+Z+`+ @.@+@@@^.^.",
"      #@$@%@&@*@=@-@;@3+>@,@'@)@!@~@{@]@^@/@(@Y+_@:@<@[@}@|@^.^.",
"      1@2@3@4@5@6@7@8@9@q+0@a@b@c@d@e@f@g@h@i@j@k@l@m@n@o@p@^.^.",
"      k q@r@s@t@u@v@w@Z.x@y@z@A@^.B@C@D@E@F@G@H@I@J@K@L@M@N@^.^.",
"      > O@P@Q@R@S@T@U@V@W@X@Y@Z@`@^.^. #.#+#@###$#%#&#*#=#-#^.^.",
"      > E.;#>#,#'#)#!#~#{#]#^#/#(#_#:#<#[#}#|#1#2#2#3#4#5#6#^.^.",
"      > 7#V.8#9#0#a#b#c#d#e#f#g#h#i#j#k#l#m#n#o#p#p#q#r#s#t#^.^.",
"      > u#v#w#x#y#z#A#B#C#D#E#F#G#H#I#J#K#L#M#L#N#M#L#O#P#Q#^.^.",
"      > R#S#T#U#V#z#W#X#Y#Z#`# $.$+$@$#$$$%$&$*$=$-$L#;$>$,$^.^.",
"      / > '$)$!$9 z#~${$]$^$/$($_$:$<$[$}$|$1$2$3$4$5$6$7$8$^.^.",
"      > ; 9$0$a$b$c$d$e$f$g$h$i$j$k$l$m$n$o$p$q$r$s$t$6$u$k$^.^.",
"      > v$w$x$y$. z$A$3+B$C$D$E$F$G$H$I$2#J$K$L$M$N$O$m#P$Q$^.^.",
"      > R$S$T$U$. 9 V$W$B X$Y$Z$`$ %.%N#2#+%@%#%$%%%&%m#|$*%^.^.",
"      > =%-%;%. . ` z$>%,%'%)%!%~%{%m#p#o#]%^%/%(%_%:%2#<%[%^.^.",
"                ^.^.^.^.^.^.^.^.^.^.^.^.^.^.^.^.^.^.^.^.^.^.^.^.",
"                ^.^.^.^.^.^.^.^.^.^.^.^.^.^.^.^.^.^.^.^.^.^.^.^."};
